# xmcd
#
# Track frame offsets:
#	150
#	15777
#	32080
#	47476
#	61859
#	80032
#	92589
#	109097
#	122197
#	136780
#	148794
#	160647
#	177869
#	191635
#	204877
#	219422
#	238543
#	250015
#	265246
#
# Disc length: 3701 seconds
#
# Revision: 1
# Processed by: cddbd v1.5.2PL0 Copyright (c) Steve Scherf et al.
# Submitted via: EasyCDDAExtractor 12.0.0.1
#
DISCID=f50e7313
DTITLE=Various Artist - ΛΑΙΚΑ 2009
DYEAR=2009
DGENRE=GREEK
TTITLE0=ΝΙΚΟΣ ΜΑΚΡΟΠΟΥΛΟΣ - ΚΑΤΕΔΑΦΙΣΤΕ ΤΟ
TTITLE1=ΚΑΤΕΡΙΝΑ ΣΤΑΝΙΣΗ - ΝΑ ΚΑΟΥΝΕ ΤΑ ΚΡΕΒΑΤΙΑ
TTITLE2=ΘΕΜΗΣ ΑΔΑΜΑΝΤΙΔΗΣ - ΧΑΡΤΙΝΑ ΟΝΕΙΡΑ
TTITLE3=ΠΑΝΟΣ ΚΙΑΜΟΣ - ΣΑΝ ΤΑΙΝΙΑ ΠΑΛΙΑ
TTITLE4=ΑΛΕΚΟΣ ΖΑΖΟΠΟΥΛΟΣ - ΤΟ ΚΑΛΟ ΠΟΥ ΣΟΥ ΘΕΛΩ
TTITLE5=ΕΛΕΝΑ ΓΚΡΕΚΟΥ - Ο ΑΚΑΡΔΟΣ ( ΤΙ  ΝΑ ΝΙΩΣΕΙ ΕΝΑΣ ΑΚΑΡΔΟΣ)
TTITLE6=ΜΑΚΗΣ ΧΡΙΣΤΟΔΟΥΛΟΠΟΥΛΟΣ - ΓΡΑΜΜΑΤΑ ΣΟΥ ΣΚΙΖΩ
TTITLE7=ΓΛΥΚΕΡΙΑ - ΠΗΓΑ ΣΕ ΜΑΓΙΣΣΕΣ
TTITLE8=ΒΑΓΓΕΛΗΣ ΠΕΡΠΙΝΙΑΔΗΣ - ΤΑ ΝΕΑ ΤΗΣ ΑΛΕΞΑΝΔΡΑΣ
TTITLE9=ΓΙΩΤΑ ΛΥΔΙΑ - ΑΛΛΟΣ ΤΑ ΒΡΗΚΕ ΤΑ ΚΛΕΙΔΙΑ
TTITLE10=ΠΑΝΑΓΙΩΤΗΣ ΜΙΧΑΛΟΠΟΥΛΟΣ - ΜΟΥ ΤΑ ΦΑΓΑΝ ΟΙ ΓΥΝΑΙΚΕΣ
TTITLE11=ΠΡΟΔΡΟΜΟΣ ΤΣΑΟΥΣΑΚΗΣ - ΝΑ ΠΕΘΑΝΕΙΣ ΑΤΑΧΤΗ
TTITLE12=ΕΛΕΝΑ ΓΙΑΝΝΑΚΑΚΗ - ΤΟ ΣΕΝΤΟΝΑΚΙ
TTITLE13=ΣΠΥΡΟΣ ΖΑΓΟΡΑΙΟΣ - ΜΕΣ ΣΤΗΣ ΠΕΝΤΕΛΗΣ ΤΑ ΒΟΥΝΑ
TTITLE14=ΡΙΤΑ ΣΑΚΕΛΛΑΡΙΟΥ - ΤΑ ΔΑΚΡΥΑ
TTITLE15=ΠΟΛΥΣ ΚΕΡΜΑΝΙΔΗΣ - ΤΑ ΠΛΟΙΑ ΠΕΘΑΙΝΟΥΝ ΣΤΑ ΛΙΜΑΝΙΑ
TTITLE16=ΧΑΡΟΥΛΑ ΛΑΜΠΡΑΚΗ - ΠΑΝΤΡΕΥΤΗΚΕΣ ΛΟΙΠΟΝ 
TTITLE17=ΜΙΧΑΛΗΣ ΜΕΝΙΔΙΑΤΗΣ - ΑΠ' ΤΙΣ ΠΑΡΑΝΟΜΙΕΣ ΜΟΥ
TTITLE18=ΤΟΛΗΣ ΒΟΣΚΟΠΟΥΛΟΣ - ΠΕΤΡΑ ΒΑΡΙΑ ΤΟ ΒΛΕΜΜΑ ΣΟΥ
EXTD=
EXTT0=
EXTT1=
EXTT2=
EXTT3=
EXTT4=
EXTT5=
EXTT6=
EXTT7=
EXTT8=
EXTT9=
EXTT10=
EXTT11=
EXTT12=
EXTT13=
EXTT14=
EXTT15=
EXTT16=
EXTT17=
EXTT18=
PLAYORDER=
